<?xml version="1.0" encoding="utf-8"?>
<!-- Generator: Adobe Illustrator 19.2.1, SVG Export Plug-In . SVG Version: 6.00 Build 0)  -->
<!DOCTYPE svg PUBLIC "-//W3C//DTD SVG 1.1//EN" "http://www.w3.org/Graphics/SVG/1.1/DTD/svg11.dtd">
<svg version="1.1" id="iconmonstr" xmlns="http://www.w3.org/2000/svg" xmlns:xlink="http://www.w3.org/1999/xlink" x="0px" y="0px"
	 viewBox="0 0 31.8 24" style="enable-background:new 0 0 31.8 24;" xml:space="preserve">
<style type="text/css">
	.st0{fill:url(#SVGID_1_);}
</style>
<g>
	<linearGradient id="SVGID_1_" gradientUnits="userSpaceOnUse" x1="35.6182" y1="0.7413" x2="-3.9443" y2="31.8663">
		<stop  offset="1.075980e-02" style="stop-color:#C80C0F"/>
		<stop  offset="0.1714" style="stop-color:#C10C0E"/>
		<stop  offset="0.4128" style="stop-color:#AC0D0A"/>
		<stop  offset="0.7035" style="stop-color:#8B0E04"/>
		<stop  offset="0.8495" style="stop-color:#770F00"/>
	</linearGradient>
	<polygon class="st0" points="28.6,15.3 28.6,10.8 16.2,10.8 16.2,7.5 19.3,7.5 19.3,0.5 12.3,0.5 12.3,7.5 15.5,7.5 15.5,10.8 
		3.3,10.8 3.3,15.3 0.1,15.3 0.1,22.3 7.2,22.3 7.2,15.3 4,15.3 4,11.5 15.5,11.5 15.5,15.3 12.3,15.3 12.3,22.3 19.3,22.3 
		19.3,15.3 16.2,15.3 16.2,11.4 28,11.4 28,15.3 24.8,15.3 24.8,22.3 31.8,22.3 31.8,15.3 	"/>
</g>
</svg>
