<?xml version="1.0" encoding="utf-8"?>
<!-- Generator: Adobe Illustrator 19.2.1, SVG Export Plug-In . SVG Version: 6.00 Build 0)  -->
<!DOCTYPE svg PUBLIC "-//W3C//DTD SVG 1.1//EN" "http://www.w3.org/Graphics/SVG/1.1/DTD/svg11.dtd">
<svg version="1.1" id="iconmonstr" xmlns="http://www.w3.org/2000/svg" xmlns:xlink="http://www.w3.org/1999/xlink" x="0px" y="0px"
	 viewBox="0 0 31.8 24" style="enable-background:new 0 0 31.8 24;" xml:space="preserve">
<style type="text/css">
	.st0{fill:url(#SVGID_1_);}
	.st1{opacity:0.4;}
	.st2{fill:#868686;}
	.st3{fill:url(#SVGID_2_);}
	.st4{opacity:0.4;fill:#868686;}
	.st5{fill:url(#SVGID_3_);}
</style>
<g>
	<g>
		<linearGradient id="SVGID_1_" gradientUnits="userSpaceOnUse" x1="22.7598" y1="-3.7607" x2="-4.2402" y2="25.1143">
			<stop  offset="1.075980e-02" style="stop-color:#C80C0F"/>
			<stop  offset="0.1714" style="stop-color:#C10C0E"/>
			<stop  offset="0.4128" style="stop-color:#AC0D0A"/>
			<stop  offset="0.7035" style="stop-color:#8B0E04"/>
			<stop  offset="0.8495" style="stop-color:#770F00"/>
		</linearGradient>
		<path class="st0" d="M4.7,24h6.2V0.6H4.7V24z M6,3.8h3.5v7.7H6V3.8z M7.8,18.1c1.2,0,2.2,1,2.2,2.2c0,1.2-1,2.2-2.2,2.2
			s-2.2-1-2.2-2.2C5.5,19.1,6.5,18.1,7.8,18.1z"/>
	</g>
	<g class="st1">
		<circle class="st2" cx="7.8" cy="20.4" r="1.8"/>
	</g>
	<g class="st1">
		<rect x="6.6" y="4.2" class="st2" width="2.4" height="1"/>
	</g>
	<g class="st1">
		<rect x="6.6" y="9.7" class="st2" width="2.4" height="1"/>
	</g>
	<g class="st1">
		<rect x="6.6" y="6.9" class="st2" width="2.4" height="1"/>
	</g>
	<g>
		<linearGradient id="SVGID_2_" gradientUnits="userSpaceOnUse" x1="27.1026" y1="0.3001" x2="0.1026" y2="29.1751">
			<stop  offset="1.075980e-02" style="stop-color:#C80C0F"/>
			<stop  offset="0.1714" style="stop-color:#C10C0E"/>
			<stop  offset="0.4128" style="stop-color:#AC0D0A"/>
			<stop  offset="0.7035" style="stop-color:#8B0E04"/>
			<stop  offset="0.8495" style="stop-color:#770F00"/>
		</linearGradient>
		<path class="st3" d="M12.8,24H19V0.6h-6.2V24z M14.1,3.8h3.5v7.7h-3.5C14.1,11.4,14.1,3.8,14.1,3.8z M15.9,18.1
			c1.2,0,2.2,1,2.2,2.2c0,1.2-1,2.2-2.2,2.2c-1.2,0-2.2-1-2.2-2.2C13.6,19.1,14.7,18.1,15.9,18.1z"/>
	</g>
	<g class="st1">
		<circle class="st2" cx="15.9" cy="20.4" r="1.8"/>
	</g>
	<g class="st1">
		<rect x="14.7" y="4.2" class="st2" width="2.4" height="1"/>
	</g>
	<g>
		<rect x="14.7" y="9.7" class="st4" width="2.4" height="1"/>
	</g>
	<g class="st1">
		<rect x="14.7" y="6.9" class="st2" width="2.4" height="1"/>
	</g>
	<g>
		<linearGradient id="SVGID_3_" gradientUnits="userSpaceOnUse" x1="31.2886" y1="4.2143" x2="4.2886" y2="33.0893">
			<stop  offset="1.075980e-02" style="stop-color:#C80C0F"/>
			<stop  offset="0.1714" style="stop-color:#C10C0E"/>
			<stop  offset="0.4128" style="stop-color:#AC0D0A"/>
			<stop  offset="0.7035" style="stop-color:#8B0E04"/>
			<stop  offset="0.8495" style="stop-color:#770F00"/>
		</linearGradient>
		<path class="st5" d="M20.6,0.6V24h6.2V0.6H20.6z M22,3.8h3.5v7.7H22V3.8z M23.7,22.6c-1.2,0-2.2-1-2.2-2.2c0-1.2,1-2.2,2.2-2.2
			c1.2,0,2.2,1,2.2,2.2C26,21.6,25,22.6,23.7,22.6z"/>
	</g>
	<g class="st1">
		<circle class="st2" cx="23.7" cy="20.4" r="1.8"/>
	</g>
	<g class="st1">
		<rect x="22.5" y="4.2" class="st2" width="2.4" height="1"/>
	</g>
	<g class="st1">
		<rect x="22.5" y="9.7" class="st2" width="2.4" height="1"/>
	</g>
	<g class="st1">
		<rect x="22.5" y="6.9" class="st2" width="2.4" height="1"/>
	</g>
</g>
</svg>
